<svg width="500" height="500" viewBox="0 0 500 500" fill="none" xmlns="http://www.w3.org/2000/svg">
<style>
    @media (prefers-color-scheme: dark) {
      svg {
        filter: invert(100%);
      }
    }

    @media (prefers-color-scheme: light) {
      svg {
        filter: invert(0%);
      }
    }
  </style>
<g clip-path="url(#clip0_4_4)">
<path d="M155 77.5V155H77.5H0V163.5V172H77.5H155V249.5V327H77.5H0V335V343H77.5H155V421.5V500H163.5H172V421.5V343H250H328V421.5V500H336.5H345V421.5V343H422.5H500V335V327H422.5H345V249.5V172H422.5H500V163.5V155H422.5H345V77.5V-7.45058e-06H336.5H328V77.5V155H250H172V77.5V-7.45058e-06H163.5H155V77.5ZM328 249.5V327H250H172V249.5V172H250H328V249.5Z" fill="black"/>
<path d="M224.3 211.5C222.9 215.3 225 221.4 230.9 230.3C239.9 244.1 239.8 243.4 233.3 251.6C224.8 262.2 219.2 271 217 277.2C213.8 286.4 214.4 291 219 291C221.5 291 222.3 290.1 226 282.7C232.7 269.9 241.8 257 244.2 257C244.6 257 248.5 261.7 253 267.4C261.3 278.2 267.1 284 269.5 284C275.7 284 275.5 279.4 268.8 270.1C265.9 266.1 261.1 259.4 258.1 255.2L252.7 247.5L261.2 239.5C265.8 235.1 273.5 228.8 278.2 225.6C286.9 219.7 287.5 218.8 284.7 215.2C281.9 211.6 272 215.7 263 224.4C255.1 231.9 249.8 236 247.8 236C247 236 243.6 231.3 240.2 225.6C236.8 219.9 233.1 214.1 231.9 212.6C229.6 209.7 225.3 209.1 224.3 211.5Z" fill="black"/>
<path d="M52.9 38.1C51.8 39.2 51.1 40.8 51.4 41.7C51.7 42.5 52 44 52 44.9C52 45.9 55.2 51.6 59 57.5C62.9 63.4 66 69.2 66 70.3C66 71.4 63.6 75.3 60.6 79C45.8 97.3 39.3 113.6 45.2 117.4C48.1 119.2 50 117.1 55.1 107.1C60.5 96.8 69.5 84 71.5 84C72.3 84 76.7 88.9 81.5 94.9C86.2 101 91.2 106.8 92.7 107.9C95.7 110.4 100.8 110.7 101.6 108.5C102.7 105.7 101.1 102.5 93.5 92.5C89.3 87 84.7 80.6 83.3 78.2L80.7 73.9L84.1 70.3C88.2 66 105.1 52.4 110.3 49.1C119.1 43.7 110.8 38 101.1 42.9C99 44 94 47.9 90 51.7C81.8 59.3 77.1 63 75.5 63C74.9 63 72.2 59.3 69.5 54.7C58.6 36.5 56.6 34.4 52.9 38.1Z" fill="black"/>
<path d="M397.8 382.1C395.8 383.2 395.5 387.4 397.1 391.7C397.6 393.2 400.7 398.5 404 403.5C407.2 408.4 410.1 413.4 410.4 414.5C410.8 416 409.3 418.6 404.9 424C396 435.1 390.3 444.8 388.5 451.6C386.7 458.6 387.6 463 390.8 463C393.3 463 395.1 460.8 399 453C405.5 440 414.6 428 416.9 429.5C417.5 429.8 421.5 434.5 425.7 439.8C435.7 452.4 438.6 455 442.6 455C449.4 455 447.8 450.3 435.2 433.7C425.6 421.1 425.1 419.9 428.1 416.2C432.1 411.6 442.1 403 450.7 397.1C457.4 392.5 458.8 391.1 458.3 389.5C457.6 386.9 456.1 386 452.7 386C447.8 386 443.5 388.6 434.4 397C425.3 405.4 420.7 408.5 419 407.5C418.5 407.2 415.2 402.2 411.8 396.3C406 386.7 401.7 381 400.1 381C399.8 381 398.7 381.5 397.8 382.1Z" fill="black"/>
</g>
<defs>
<clipPath id="clip0_4_4">
<rect width="500" height="500" fill="white"/>
</clipPath>
</defs>
</svg>
